<svg width="67" height="14" viewBox="0 0 67 14" fill="none" xmlns="http://www.w3.org/2000/svg">
<path d="M0.485352 13V0.203125H4.09766C5.21094 0.203125 6.19531 0.449219 7.05078 0.941406C7.90625 1.43359 8.56543 2.13379 9.02832 3.04199C9.49707 3.9502 9.73438 4.99316 9.74023 6.1709V6.98828C9.74023 8.19531 9.50586 9.25293 9.03711 10.1611C8.57422 11.0693 7.90918 11.7666 7.04199 12.2529C6.18066 12.7393 5.17578 12.9883 4.02734 13H0.485352ZM2.17285 1.5918V11.6201H3.94824C5.24902 11.6201 6.25977 11.2158 6.98047 10.4072C7.70703 9.59863 8.07031 8.44727 8.07031 6.95312V6.20605C8.07031 4.75293 7.72754 3.625 7.04199 2.82227C6.3623 2.01367 5.39551 1.60352 4.1416 1.5918H2.17285ZM15.9893 13.1758C14.7002 13.1758 13.6514 12.7539 12.8428 11.9102C12.0342 11.0605 11.6299 9.92676 11.6299 8.50879V8.20996C11.6299 7.2666 11.8086 6.42578 12.166 5.6875C12.5293 4.94336 13.0332 4.36328 13.6777 3.94727C14.3281 3.52539 15.0312 3.31445 15.7871 3.31445C17.0234 3.31445 17.9844 3.72168 18.6699 4.53613C19.3555 5.35059 19.6982 6.5166 19.6982 8.03418V8.71094H13.2559C13.2793 9.64844 13.5518 10.4072 14.0732 10.9873C14.6006 11.5615 15.2686 11.8486 16.0771 11.8486C16.6514 11.8486 17.1377 11.7314 17.5361 11.4971C17.9346 11.2627 18.2832 10.9521 18.582 10.5654L19.5752 11.3389C18.7783 12.5635 17.583 13.1758 15.9893 13.1758ZM15.7871 4.65039C15.1309 4.65039 14.5801 4.89062 14.1348 5.37109C13.6895 5.8457 13.4141 6.51367 13.3086 7.375H18.0723V7.25195C18.0254 6.42578 17.8027 5.78711 17.4043 5.33594C17.0059 4.87891 16.4668 4.65039 15.7871 4.65039ZM24.6025 10.7939L26.958 3.49023H28.6191L25.209 13H23.9697L20.5244 3.49023H22.1855L24.6025 10.7939ZM40.2734 13H38.5771L32.1348 3.13867V13H30.4385V0.203125H32.1348L38.5947 10.1084V0.203125H40.2734V13ZM42.585 8.15723C42.585 7.22559 42.7666 6.3877 43.1299 5.64355C43.499 4.89941 44.0088 4.3252 44.6592 3.9209C45.3154 3.5166 46.0625 3.31445 46.9004 3.31445C48.1953 3.31445 49.2412 3.7627 50.0381 4.65918C50.8408 5.55566 51.2422 6.74805 51.2422 8.23633V8.35059C51.2422 9.27637 51.0635 10.1084 50.7061 10.8467C50.3545 11.5791 49.8477 12.1504 49.1855 12.5605C48.5293 12.9707 47.7734 13.1758 46.918 13.1758C45.6289 13.1758 44.583 12.7275 43.7803 11.8311C42.9834 10.9346 42.585 9.74805 42.585 8.27148V8.15723ZM44.2197 8.35059C44.2197 9.40527 44.4629 10.252 44.9492 10.8906C45.4414 11.5293 46.0977 11.8486 46.918 11.8486C47.7441 11.8486 48.4004 11.5264 48.8867 10.8818C49.373 10.2314 49.6162 9.32324 49.6162 8.15723C49.6162 7.11426 49.3672 6.27051 48.8691 5.62598C48.377 4.97559 47.7207 4.65039 46.9004 4.65039C46.0977 4.65039 45.4502 4.96973 44.958 5.6084C44.4658 6.24707 44.2197 7.16113 44.2197 8.35059ZM55.4873 1.1875V3.49023H57.2627V4.74707H55.4873V10.6445C55.4873 11.0254 55.5664 11.3125 55.7246 11.5059C55.8828 11.6934 56.1523 11.7871 56.5332 11.7871C56.7207 11.7871 56.9785 11.752 57.3066 11.6816V13C56.8789 13.1172 56.4629 13.1758 56.0586 13.1758C55.332 13.1758 54.7842 12.9561 54.415 12.5166C54.0459 12.0771 53.8613 11.4531 53.8613 10.6445V4.74707H52.1299V3.49023H53.8613V1.1875H55.4873ZM63.1162 13.1758C61.8271 13.1758 60.7783 12.7539 59.9697 11.9102C59.1611 11.0605 58.7568 9.92676 58.7568 8.50879V8.20996C58.7568 7.2666 58.9355 6.42578 59.293 5.6875C59.6562 4.94336 60.1602 4.36328 60.8047 3.94727C61.4551 3.52539 62.1582 3.31445 62.9141 3.31445C64.1504 3.31445 65.1113 3.72168 65.7969 4.53613C66.4824 5.35059 66.8252 6.5166 66.8252 8.03418V8.71094H60.3828C60.4062 9.64844 60.6787 10.4072 61.2002 10.9873C61.7275 11.5615 62.3955 11.8486 63.2041 11.8486C63.7783 11.8486 64.2646 11.7314 64.6631 11.4971C65.0615 11.2627 65.4102 10.9521 65.709 10.5654L66.7021 11.3389C65.9053 12.5635 64.71 13.1758 63.1162 13.1758ZM62.9141 4.65039C62.2578 4.65039 61.707 4.89062 61.2617 5.37109C60.8164 5.8457 60.541 6.51367 60.4355 7.375H65.1992V7.25195C65.1523 6.42578 64.9297 5.78711 64.5312 5.33594C64.1328 4.87891 63.5938 4.65039 62.9141 4.65039Z" fill="black"/>
</svg>
